<svg width="100" height="31" viewBox="0 0 100 31" fill="none" xmlns="http://www.w3.org/2000/svg">
<path d="M11.6538 3.124C13.0578 3.124 14.2538 3.36667 15.2418 3.852C16.2471 4.32 17.0098 4.996 17.5298 5.88C18.0671 6.764 18.3358 7.83867 18.3358 9.104C18.3358 9.84933 18.2231 10.586 17.9978 11.314C17.7724 12.042 17.4084 12.7093 16.9058 13.316C16.4204 13.9053 15.7704 14.382 14.9558 14.746C14.1411 15.0927 13.1531 15.266 11.9918 15.266H9.23576V22H6.45376V3.124H11.6538ZM11.9918 12.588C12.6851 12.588 13.2658 12.4753 13.7338 12.25C14.2018 12.0073 14.5658 11.704 14.8258 11.34C15.1031 10.976 15.2938 10.6033 15.3978 10.222C15.5191 9.82333 15.5798 9.468 15.5798 9.156C15.5798 8.80933 15.5191 8.44533 15.3978 8.064C15.2938 7.66533 15.1118 7.30133 14.8518 6.972C14.5918 6.62533 14.2364 6.348 13.7858 6.14C13.3351 5.91467 12.7718 5.802 12.0958 5.802H9.23576V12.588H11.9918ZM23.9138 11.106L24.1738 14.226L24.0438 13.81C24.3384 13.1513 24.7544 12.588 25.2918 12.12C25.8291 11.652 26.3838 11.2967 26.9558 11.054C27.5451 10.794 28.0391 10.664 28.4378 10.664L28.3078 13.316C27.4758 13.264 26.7478 13.42 26.1238 13.784C25.5171 14.148 25.0404 14.6333 24.6938 15.24C24.3471 15.8467 24.1738 16.4967 24.1738 17.19V22H21.5218V11.106H23.9138ZM30.0819 16.436C30.0819 15.344 30.3419 14.3647 30.8619 13.498C31.3819 12.614 32.1012 11.9207 33.0199 11.418C33.9385 10.9153 34.9872 10.664 36.1659 10.664C37.3619 10.664 38.4105 10.9153 39.3119 11.418C40.2132 11.9207 40.9065 12.614 41.3919 13.498C41.8945 14.3647 42.1459 15.344 42.1459 16.436C42.1459 17.528 41.8945 18.516 41.3919 19.4C40.9065 20.284 40.2132 20.986 39.3119 21.506C38.4105 22.0087 37.3532 22.26 36.1399 22.26C34.9785 22.26 33.9385 22.026 33.0199 21.558C32.1185 21.09 31.3992 20.4227 30.8619 19.556C30.3419 18.672 30.0819 17.632 30.0819 16.436ZM32.7859 16.462C32.7859 17.138 32.9332 17.7533 33.2279 18.308C33.5225 18.8453 33.9212 19.2787 34.4239 19.608C34.9265 19.92 35.4899 20.076 36.1139 20.076C36.7552 20.076 37.3272 19.92 37.8299 19.608C38.3325 19.2787 38.7225 18.8453 38.9999 18.308C39.2945 17.7533 39.4419 17.138 39.4419 16.462C39.4419 15.786 39.2945 15.1793 38.9999 14.642C38.7225 14.1047 38.3325 13.6713 37.8299 13.342C37.3272 13.0127 36.7552 12.848 36.1139 12.848C35.4725 12.848 34.9005 13.0127 34.3979 13.342C33.8952 13.6713 33.4965 14.1133 33.2019 14.668C32.9245 15.2053 32.7859 15.8033 32.7859 16.462ZM45.5728 27.252L44.0128 25.588C44.4981 25.172 44.8795 24.6607 45.1568 24.054C45.4341 23.4647 45.5728 22.7627 45.5728 21.948V11.106H48.2768V22.052C48.2768 23.3 48.0601 24.3487 47.6268 25.198C47.2108 26.0473 46.5261 26.732 45.5728 27.252ZM45.3908 7.206C45.3908 6.79 45.5555 6.44333 45.8848 6.166C46.2141 5.88867 46.5695 5.75 46.9508 5.75C47.3495 5.75 47.7048 5.88867 48.0168 6.166C48.3288 6.44333 48.4848 6.79 48.4848 7.206C48.4848 7.622 48.3288 7.96867 48.0168 8.246C47.7048 8.506 47.3495 8.636 46.9508 8.636C46.5695 8.636 46.2141 8.506 45.8848 8.246C45.5555 7.96867 45.3908 7.622 45.3908 7.206ZM57.3664 22.26C56.1011 22.26 55.0178 22.0173 54.1164 21.532C53.2151 21.0293 52.5218 20.3447 52.0364 19.478C51.5511 18.594 51.3084 17.5887 51.3084 16.462C51.3084 15.3873 51.5771 14.4167 52.1144 13.55C52.6691 12.666 53.4058 11.964 54.3244 11.444C55.2604 10.924 56.2918 10.664 57.4184 10.664C58.8744 10.664 60.0791 11.0887 61.0324 11.938C62.0031 12.7873 62.6531 13.9747 62.9824 15.5L54.1164 18.568L53.4924 17.008L60.5904 14.46L60.0444 14.798C59.8364 14.2607 59.5071 13.7927 59.0564 13.394C58.6058 12.978 57.9904 12.77 57.2104 12.77C56.5864 12.77 56.0231 12.926 55.5204 13.238C55.0351 13.5327 54.6451 13.9487 54.3504 14.486C54.0731 15.006 53.9344 15.6213 53.9344 16.332C53.9344 17.06 54.0818 17.7013 54.3764 18.256C54.6884 18.7933 55.1044 19.218 55.6244 19.53C56.1618 19.842 56.7598 19.998 57.4184 19.998C57.8864 19.998 58.3284 19.9113 58.7444 19.738C59.1778 19.5647 59.5851 19.348 59.9664 19.088L61.1884 21.064C60.6164 21.428 59.9924 21.7227 59.3164 21.948C58.6578 22.156 58.0078 22.26 57.3664 22.26ZM74.8734 20.986C74.388 21.3847 73.7987 21.6967 73.1054 21.922C72.4294 22.1473 71.7447 22.26 71.0514 22.26C69.8554 22.26 68.798 22.026 67.8794 21.558C66.978 21.09 66.276 20.4313 65.7734 19.582C65.2707 18.7327 65.0194 17.7187 65.0194 16.54C65.0194 15.3787 65.288 14.3733 65.8254 13.524C66.3627 12.6573 67.0734 11.9987 67.9574 11.548C68.8414 11.08 69.7774 10.846 70.7654 10.846C71.6667 10.846 72.464 10.9673 73.1574 11.21C73.8507 11.4527 74.4487 11.7907 74.9514 12.224L73.6254 13.966C73.3307 13.7233 72.958 13.5067 72.5074 13.316C72.074 13.1253 71.5714 13.03 70.9994 13.03C70.3927 13.03 69.838 13.186 69.3354 13.498C68.8327 13.7927 68.434 14.2087 68.1394 14.746C67.8447 15.266 67.6974 15.864 67.6974 16.54C67.6974 17.1813 67.8447 17.7793 68.1394 18.334C68.4514 18.8713 68.876 19.296 69.4134 19.608C69.9507 19.92 70.566 20.076 71.2594 20.076C71.71 20.076 72.126 20.0153 72.5074 19.894C72.8887 19.7553 73.2267 19.5647 73.5214 19.322L74.8734 20.986ZM78.9797 6.322H81.6577V11.132H84.5697V13.238H81.6577V22H78.9797V13.238H77.0557V11.132H78.9797V6.322ZM90.6332 22.234C89.8359 22.234 89.0646 22.0953 88.3192 21.818C87.5739 21.5233 86.9586 21.0987 86.4732 20.544L87.6172 19.036C88.0852 19.4693 88.5532 19.7987 89.0212 20.024C89.5066 20.232 89.9659 20.336 90.3992 20.336C90.7459 20.336 91.0579 20.3013 91.3352 20.232C91.6126 20.1453 91.8379 20.0067 92.0112 19.816C92.1846 19.6253 92.2712 19.374 92.2712 19.062C92.2712 18.698 92.1499 18.412 91.9072 18.204C91.6646 17.996 91.3526 17.8227 90.9712 17.684C90.5899 17.5453 90.1826 17.4153 89.7492 17.294C88.8306 16.9993 88.1372 16.5833 87.6692 16.046C87.2012 15.4913 86.9672 14.8413 86.9672 14.096C86.9672 13.524 87.1059 12.9867 87.3832 12.484C87.6779 11.964 88.1199 11.5393 88.7092 11.21C89.2986 10.8807 90.0266 10.716 90.8932 10.716C91.6906 10.716 92.3926 10.8113 92.9992 11.002C93.6059 11.1753 94.1692 11.4787 94.6892 11.912L93.6492 13.524C93.3372 13.212 92.9646 12.978 92.5312 12.822C92.1152 12.6487 91.7339 12.5533 91.3872 12.536C91.0752 12.536 90.7892 12.588 90.5292 12.692C90.2692 12.7787 90.0612 12.9173 89.9052 13.108C89.7492 13.2813 89.6712 13.4893 89.6712 13.732C89.6539 14.0787 89.7666 14.3647 90.0092 14.59C90.2692 14.798 90.5986 14.9713 90.9972 15.11C91.3959 15.2313 91.7859 15.3613 92.1672 15.5C92.7046 15.656 93.1812 15.8727 93.5972 16.15C94.0132 16.41 94.3426 16.7307 94.5852 17.112C94.8279 17.4933 94.9492 17.9787 94.9492 18.568C94.9492 19.2093 94.7932 19.816 94.4812 20.388C94.1692 20.9427 93.6926 21.3933 93.0512 21.74C92.4099 22.0693 91.6039 22.234 90.6332 22.234Z" fill="#262E34"/>
</svg>
