<svg width="100" height="31" viewBox="0 0 100 31" fill="none" xmlns="http://www.w3.org/2000/svg">
<path d="M32.7857 6.738C32.127 6.39133 31.4163 6.09667 30.6537 5.854C29.891 5.61133 29.1543 5.49 28.4437 5.49C27.473 5.49 26.7017 5.71533 26.1297 6.166C25.5577 6.59933 25.2717 7.19733 25.2717 7.96C25.2717 8.49733 25.4623 8.96533 25.8437 9.364C26.225 9.76267 26.719 10.1093 27.3257 10.404C27.9323 10.6987 28.5737 10.976 29.2497 11.236C29.8217 11.444 30.385 11.6953 30.9397 11.99C31.5117 12.2673 32.023 12.614 32.4737 13.03C32.9417 13.446 33.3057 13.966 33.5657 14.59C33.843 15.1967 33.9817 15.942 33.9817 16.826C33.9817 17.8313 33.7303 18.7413 33.2277 19.556C32.7423 20.3707 32.0317 21.0207 31.0957 21.506C30.177 21.974 29.059 22.208 27.7417 22.208C26.9443 22.208 26.1643 22.1213 25.4017 21.948C24.6563 21.7573 23.9457 21.5147 23.2697 21.22C22.611 20.908 22.013 20.57 21.4757 20.206L22.7237 18.048C23.1397 18.3427 23.6163 18.6287 24.1537 18.906C24.691 19.166 25.2457 19.374 25.8177 19.53C26.407 19.686 26.9617 19.764 27.4817 19.764C28.0537 19.764 28.617 19.6687 29.1717 19.478C29.7263 19.27 30.1857 18.958 30.5497 18.542C30.9137 18.1087 31.0957 17.5453 31.0957 16.852C31.0957 16.2627 30.931 15.7687 30.6017 15.37C30.2897 14.954 29.865 14.5987 29.3277 14.304C28.8077 14.0093 28.2443 13.7493 27.6377 13.524C27.0483 13.2987 26.4503 13.0473 25.8437 12.77C25.237 12.4927 24.6737 12.1633 24.1537 11.782C23.6337 11.3833 23.209 10.898 22.8797 10.326C22.5677 9.73667 22.4117 9.01733 22.4117 8.168C22.4117 7.16267 22.6457 6.28733 23.1137 5.542C23.599 4.77933 24.2663 4.18133 25.1157 3.748C25.965 3.31467 26.9443 3.072 28.0537 3.02C29.319 3.02 30.4197 3.176 31.3557 3.488C32.2917 3.8 33.1237 4.17267 33.8517 4.606L32.7857 6.738ZM37.4925 22V1.798H40.1705V22H37.4925ZM42.8225 14.72L47.8145 22H44.6945L41.0545 16.254L42.8225 14.72ZM39.3385 18.646L39.0785 16.072L45.6825 10.872L47.3205 12.302L39.3385 18.646ZM50.6956 11.106H53.3736V22H50.6956V11.106ZM50.5396 7.206C50.5396 6.79 50.7043 6.44333 51.0336 6.166C51.3629 5.88867 51.7183 5.75 52.0996 5.75C52.4983 5.75 52.8536 5.88867 53.1656 6.166C53.4776 6.44333 53.6336 6.79 53.6336 7.206C53.6336 7.622 53.4776 7.96867 53.1656 8.246C52.8536 8.506 52.4983 8.636 52.0996 8.636C51.7183 8.636 51.3629 8.506 51.0336 8.246C50.7043 7.96867 50.5396 7.622 50.5396 7.206ZM57.4495 1.798H60.1275V22H57.4495V1.798ZM64.2034 1.798H66.8814V22H64.2034V1.798ZM74.1293 22.234C73.332 22.234 72.5607 22.0953 71.8153 21.818C71.07 21.5233 70.4547 21.0987 69.9693 20.544L71.1133 19.036C71.5813 19.4693 72.0493 19.7987 72.5173 20.024C73.0027 20.232 73.462 20.336 73.8953 20.336C74.242 20.336 74.554 20.3013 74.8313 20.232C75.1087 20.1453 75.334 20.0067 75.5073 19.816C75.6807 19.6253 75.7673 19.374 75.7673 19.062C75.7673 18.698 75.646 18.412 75.4033 18.204C75.1607 17.996 74.8487 17.8227 74.4673 17.684C74.086 17.5453 73.6787 17.4153 73.2453 17.294C72.3267 16.9993 71.6333 16.5833 71.1653 16.046C70.6973 15.4913 70.4633 14.8413 70.4633 14.096C70.4633 13.524 70.602 12.9867 70.8793 12.484C71.174 11.964 71.616 11.5393 72.2053 11.21C72.7947 10.8807 73.5227 10.716 74.3893 10.716C75.1867 10.716 75.8887 10.8113 76.4953 11.002C77.102 11.1753 77.6653 11.4787 78.1853 11.912L77.1453 13.524C76.8333 13.212 76.4607 12.978 76.0273 12.822C75.6113 12.6487 75.23 12.5533 74.8833 12.536C74.5713 12.536 74.2853 12.588 74.0253 12.692C73.7653 12.7787 73.5573 12.9173 73.4013 13.108C73.2453 13.2813 73.1673 13.4893 73.1673 13.732C73.15 14.0787 73.2627 14.3647 73.5053 14.59C73.7653 14.798 74.0947 14.9713 74.4933 15.11C74.892 15.2313 75.282 15.3613 75.6633 15.5C76.2007 15.656 76.6773 15.8727 77.0933 16.15C77.5093 16.41 77.8387 16.7307 78.0813 17.112C78.324 17.4933 78.4453 17.9787 78.4453 18.568C78.4453 19.2093 78.2893 19.816 77.9773 20.388C77.6653 20.9427 77.1887 21.3933 76.5473 21.74C75.906 22.0693 75.1 22.234 74.1293 22.234Z" fill="#262E34"/>
</svg>
