<svg width="100" height="31" viewBox="0 0 100 31" fill="none" xmlns="http://www.w3.org/2000/svg">
<path d="M19.8813 20.57C19.604 20.7607 19.188 20.9947 18.6333 21.272C18.096 21.532 17.4547 21.7573 16.7093 21.948C15.9813 22.1387 15.1753 22.2253 14.2913 22.208C12.818 22.1907 11.492 21.9307 10.3133 21.428C9.152 20.9253 8.164 20.2407 7.34934 19.374C6.53467 18.49 5.902 17.4847 5.45134 16.358C5.018 15.214 4.80134 14.0007 4.80134 12.718C4.80134 11.2967 5.02667 9.99667 5.47734 8.818C5.928 7.622 6.56934 6.582 7.40134 5.698C8.25067 4.814 9.23867 4.12933 10.3653 3.644C11.5093 3.15867 12.7573 2.916 14.1093 2.916C15.2707 2.916 16.3193 3.072 17.2553 3.384C18.1913 3.696 18.98 4.06 19.6213 4.476L18.5293 7.076C18.0267 6.72933 17.4027 6.4 16.6573 6.088C15.9293 5.75867 15.1147 5.594 14.2133 5.594C13.3293 5.594 12.4887 5.776 11.6913 6.14C10.9113 6.48667 10.218 6.98067 9.61134 7.622C9.022 8.246 8.554 8.98267 8.20734 9.832C7.86067 10.664 7.68734 11.574 7.68734 12.562C7.68734 13.5673 7.84334 14.4947 8.15534 15.344C8.46734 16.1933 8.90934 16.93 9.48134 17.554C10.0707 18.178 10.7727 18.6633 11.5873 19.01C12.402 19.3567 13.3207 19.53 14.3433 19.53C15.314 19.53 16.1633 19.3827 16.8913 19.088C17.6367 18.7933 18.2433 18.4553 18.7113 18.074L19.8813 20.57ZM22.5155 16.436C22.5155 15.344 22.7755 14.3647 23.2955 13.498C23.8155 12.614 24.5348 11.9207 25.4535 11.418C26.3721 10.9153 27.4208 10.664 28.5995 10.664C29.7955 10.664 30.8441 10.9153 31.7455 11.418C32.6468 11.9207 33.3401 12.614 33.8255 13.498C34.3281 14.3647 34.5795 15.344 34.5795 16.436C34.5795 17.528 34.3281 18.516 33.8255 19.4C33.3401 20.284 32.6468 20.986 31.7455 21.506C30.8441 22.0087 29.7868 22.26 28.5735 22.26C27.4121 22.26 26.3721 22.026 25.4535 21.558C24.5521 21.09 23.8328 20.4227 23.2955 19.556C22.7755 18.672 22.5155 17.632 22.5155 16.436ZM25.2195 16.462C25.2195 17.138 25.3668 17.7533 25.6615 18.308C25.9561 18.8453 26.3548 19.2787 26.8575 19.608C27.3601 19.92 27.9235 20.076 28.5475 20.076C29.1888 20.076 29.7608 19.92 30.2635 19.608C30.7661 19.2787 31.1561 18.8453 31.4335 18.308C31.7281 17.7533 31.8755 17.138 31.8755 16.462C31.8755 15.786 31.7281 15.1793 31.4335 14.642C31.1561 14.1047 30.7661 13.6713 30.2635 13.342C29.7608 13.0127 29.1888 12.848 28.5475 12.848C27.9061 12.848 27.3341 13.0127 26.8315 13.342C26.3288 13.6713 25.9301 14.1133 25.6355 14.668C25.3581 15.2053 25.2195 15.8033 25.2195 16.462ZM40.1384 11.106L40.3724 13.602L40.2684 13.264C40.6324 12.484 41.1957 11.86 41.9584 11.392C42.7211 10.9067 43.6224 10.664 44.6624 10.664C45.685 10.664 46.5257 10.9673 47.1844 11.574C47.8604 12.1807 48.2071 12.9693 48.2244 13.94V22H45.5464V14.876C45.529 14.3213 45.3644 13.8707 45.0524 13.524C44.7404 13.16 44.255 12.9693 43.5964 12.952C43.007 12.952 42.4697 13.134 41.9844 13.498C41.499 13.8447 41.1177 14.3213 40.8404 14.928C40.563 15.5347 40.4244 16.2367 40.4244 17.034V22H37.7464V11.106H40.1384ZM53.3606 6.322H56.0386V11.132H58.9506V13.238H56.0386V22H53.3606V13.238H51.4366V11.132H53.3606V6.322ZM66.3921 22.26C65.3694 22.26 64.4421 22.052 63.6101 21.636C62.7781 21.2027 62.1194 20.5613 61.6341 19.712C61.1488 18.8627 60.9061 17.814 60.9061 16.566C60.9061 15.3353 61.1574 14.278 61.6601 13.394C62.1801 12.51 62.8561 11.834 63.6881 11.366C64.5374 10.8807 65.4561 10.638 66.4441 10.638C67.4841 10.638 68.3334 10.8633 68.9921 11.314C69.6681 11.7473 70.1968 12.2587 70.5781 12.848L70.3961 13.264L70.6561 11.106H73.1261V22H70.4481V19.27L70.7341 19.92C70.6648 20.0587 70.5174 20.258 70.2921 20.518C70.0668 20.7607 69.7634 21.0207 69.3821 21.298C69.0181 21.5753 68.5848 21.8093 68.0821 22C67.5968 22.1733 67.0334 22.26 66.3921 22.26ZM67.1201 20.076C67.6921 20.076 68.2034 19.972 68.6541 19.764C69.1048 19.556 69.4861 19.2613 69.7981 18.88C70.1101 18.4987 70.3268 18.048 70.4481 17.528V15.266C70.3094 14.7807 70.0754 14.3647 69.7461 14.018C69.4168 13.654 69.0181 13.368 68.5501 13.16C68.0994 12.952 67.5968 12.848 67.0421 12.848C66.4181 12.848 65.8461 13.004 65.3261 13.316C64.8061 13.6107 64.3901 14.0267 64.0781 14.564C63.7661 15.1013 63.6101 15.7253 63.6101 16.436C63.6101 17.112 63.7661 17.7273 64.0781 18.282C64.4074 18.8367 64.8408 19.2787 65.3781 19.608C65.9154 19.92 66.4961 20.076 67.1201 20.076ZM86.1468 20.986C85.6615 21.3847 85.0721 21.6967 84.3788 21.922C83.7028 22.1473 83.0181 22.26 82.3248 22.26C81.1288 22.26 80.0715 22.026 79.1528 21.558C78.2515 21.09 77.5495 20.4313 77.0468 19.582C76.5441 18.7327 76.2928 17.7187 76.2928 16.54C76.2928 15.3787 76.5615 14.3733 77.0988 13.524C77.6361 12.6573 78.3468 11.9987 79.2308 11.548C80.1148 11.08 81.0508 10.846 82.0388 10.846C82.9401 10.846 83.7375 10.9673 84.4308 11.21C85.1241 11.4527 85.7221 11.7907 86.2248 12.224L84.8988 13.966C84.6041 13.7233 84.2315 13.5067 83.7808 13.316C83.3475 13.1253 82.8448 13.03 82.2728 13.03C81.6661 13.03 81.1115 13.186 80.6088 13.498C80.1061 13.7927 79.7075 14.2087 79.4128 14.746C79.1181 15.266 78.9708 15.864 78.9708 16.54C78.9708 17.1813 79.1181 17.7793 79.4128 18.334C79.7248 18.8713 80.1495 19.296 80.6868 19.608C81.2241 19.92 81.8395 20.076 82.5328 20.076C82.9835 20.076 83.3995 20.0153 83.7808 19.894C84.1621 19.7553 84.5001 19.5647 84.7948 19.322L86.1468 20.986ZM90.2532 6.322H92.9312V11.132H95.8432V13.238H92.9312V22H90.2532V13.238H88.3292V11.132H90.2532V6.322Z" fill="#262E34"/>
</svg>
