<svg width="100" height="31" viewBox="0 0 100 31" fill="none" xmlns="http://www.w3.org/2000/svg">
<path d="M2.23861 3.228H5.46261L10.3506 17.112L9.88261 16.93L13.5746 7.44L14.8486 11.21L9.75261 22.884L2.23861 3.228ZM11.3906 3.228H14.1466L19.5026 16.878L18.9566 16.774L23.5326 3.228H26.4966L19.1126 22.832L11.3906 3.228ZM29.5579 22V1.798H32.1579V13.576L32.1319 13.134C32.4959 12.4233 33.0506 11.834 33.7959 11.366C34.5412 10.898 35.4339 10.664 36.4739 10.664C37.4966 10.664 38.3372 10.9673 38.9959 11.574C39.6719 12.1807 40.0186 12.9693 40.0359 13.94V22H37.3579V14.876C37.3406 14.3213 37.1759 13.8707 36.8639 13.524C36.5519 13.16 36.0666 12.9693 35.4079 12.952C34.8186 12.952 34.2812 13.134 33.7959 13.498C33.3106 13.8447 32.9292 14.33 32.6519 14.954C32.3746 15.5607 32.2359 16.254 32.2359 17.034V22H29.5579ZM45.0421 27.226L52.2441 11.106H54.6881L47.6681 27.226H45.0421ZM47.7981 22.078L42.5201 11.106H45.5361L49.8521 20.726L47.7981 22.078ZM67.8523 11.106L68.0863 13.446L67.9823 13.264C68.3983 12.4493 68.9703 11.8167 69.6983 11.366C70.4263 10.898 71.2669 10.664 72.2203 10.664C72.8096 10.664 73.3383 10.7593 73.8063 10.95C74.2916 11.1407 74.6903 11.4093 75.0023 11.756C75.3143 12.1027 75.5136 12.536 75.6003 13.056L75.4703 13.134C75.9036 12.3713 76.4756 11.7733 77.1863 11.34C77.9143 10.8893 78.6856 10.664 79.5003 10.664C80.5576 10.664 81.3983 10.9673 82.0223 11.574C82.6636 12.1807 82.9929 12.9607 83.0103 13.914V22H80.3583V14.928C80.3409 14.3907 80.2109 13.94 79.9683 13.576C79.7429 13.212 79.3356 13.0127 78.7463 12.978C78.1223 12.978 77.5676 13.1687 77.0823 13.55C76.6143 13.9313 76.2503 14.4253 75.9903 15.032C75.7303 15.6387 75.5916 16.2887 75.5743 16.982V22H72.8963V14.928C72.8789 14.3907 72.7489 13.94 72.5063 13.576C72.2636 13.212 71.8389 13.0127 71.2323 12.978C70.6083 12.978 70.0623 13.1687 69.5943 13.55C69.1263 13.9313 68.7623 14.434 68.5023 15.058C68.2596 15.6647 68.1383 16.306 68.1383 16.982V22H65.4603V11.106H67.8523ZM92.2405 22.26C90.9751 22.26 89.8918 22.0173 88.9905 21.532C88.0891 21.0293 87.3958 20.3447 86.9105 19.478C86.4251 18.594 86.1825 17.5887 86.1825 16.462C86.1825 15.3873 86.4511 14.4167 86.9885 13.55C87.5431 12.666 88.2798 11.964 89.1985 11.444C90.1345 10.924 91.1658 10.664 92.2925 10.664C93.7485 10.664 94.9531 11.0887 95.9065 11.938C96.8771 12.7873 97.5271 13.9747 97.8565 15.5L88.9905 18.568L88.3665 17.008L95.4645 14.46L94.9185 14.798C94.7105 14.2607 94.3811 13.7927 93.9305 13.394C93.4798 12.978 92.8645 12.77 92.0845 12.77C91.4605 12.77 90.8971 12.926 90.3945 13.238C89.9091 13.5327 89.5191 13.9487 89.2245 14.486C88.9471 15.006 88.8085 15.6213 88.8085 16.332C88.8085 17.06 88.9558 17.7013 89.2505 18.256C89.5625 18.7933 89.9785 19.218 90.4985 19.53C91.0358 19.842 91.6338 19.998 92.2925 19.998C92.7605 19.998 93.2025 19.9113 93.6185 19.738C94.0518 19.5647 94.4591 19.348 94.8405 19.088L96.0625 21.064C95.4905 21.428 94.8665 21.7227 94.1905 21.948C93.5318 22.156 92.8818 22.26 92.2405 22.26Z" fill="#262E34"/>
</svg>
