<svg width="100" height="57" viewBox="0 0 100 57" fill="none" xmlns="http://www.w3.org/2000/svg">
<path d="M95.243 26.5319C102.41 40.9218 87.1981 55.5131 64.6885 56.3544C42.1788 57.1958 14.5044 46.8668 13.0517 29.6041C11.7211 13.7919 27.2452 1.55906 41.282 1.03438C63.7916 0.193002 86.2713 8.51758 95.243 26.5319Z" fill="#262E34" fill-opacity="0.12"/>
<path d="M2.23861 16.228H5.46261L10.3506 30.112L9.88261 29.93L13.5746 20.44L14.8486 24.21L9.75261 35.884L2.23861 16.228ZM11.3906 16.228H14.1466L19.5026 29.878L18.9566 29.774L23.5326 16.228H26.4966L19.1126 35.832L11.3906 16.228ZM29.5579 35V14.798H32.1579V26.576L32.1319 26.134C32.4959 25.4233 33.0506 24.834 33.7959 24.366C34.5412 23.898 35.4339 23.664 36.4739 23.664C37.4966 23.664 38.3372 23.9673 38.9959 24.574C39.6719 25.1807 40.0186 25.9693 40.0359 26.94V35H37.3579V27.876C37.3406 27.3213 37.1759 26.8707 36.8639 26.524C36.5519 26.16 36.0666 25.9693 35.4079 25.952C34.8186 25.952 34.2812 26.134 33.7959 26.498C33.3106 26.8447 32.9292 27.33 32.6519 27.954C32.3746 28.5607 32.2359 29.254 32.2359 30.034V35H29.5579ZM45.0421 40.226L52.2441 24.106H54.6881L47.6681 40.226H45.0421ZM47.7981 35.078L42.5201 24.106H45.5361L49.8521 33.726L47.7981 35.078ZM67.8523 24.106L68.0863 26.446L67.9823 26.264C68.3983 25.4493 68.9703 24.8167 69.6983 24.366C70.4263 23.898 71.2669 23.664 72.2203 23.664C72.8096 23.664 73.3383 23.7593 73.8063 23.95C74.2916 24.1407 74.6903 24.4093 75.0023 24.756C75.3143 25.1027 75.5136 25.536 75.6003 26.056L75.4703 26.134C75.9036 25.3713 76.4756 24.7733 77.1863 24.34C77.9143 23.8893 78.6856 23.664 79.5003 23.664C80.5576 23.664 81.3983 23.9673 82.0223 24.574C82.6636 25.1807 82.9929 25.9607 83.0103 26.914V35H80.3583V27.928C80.3409 27.3907 80.2109 26.94 79.9683 26.576C79.7429 26.212 79.3356 26.0127 78.7463 25.978C78.1223 25.978 77.5676 26.1687 77.0823 26.55C76.6143 26.9313 76.2503 27.4253 75.9903 28.032C75.7303 28.6387 75.5916 29.2887 75.5743 29.982V35H72.8963V27.928C72.8789 27.3907 72.7489 26.94 72.5063 26.576C72.2636 26.212 71.8389 26.0127 71.2323 25.978C70.6083 25.978 70.0623 26.1687 69.5943 26.55C69.1263 26.9313 68.7623 27.434 68.5023 28.058C68.2596 28.6647 68.1383 29.306 68.1383 29.982V35H65.4603V24.106H67.8523ZM92.2405 35.26C90.9751 35.26 89.8918 35.0173 88.9905 34.532C88.0891 34.0293 87.3958 33.3447 86.9105 32.478C86.4251 31.594 86.1825 30.5887 86.1825 29.462C86.1825 28.3873 86.4511 27.4167 86.9885 26.55C87.5431 25.666 88.2798 24.964 89.1985 24.444C90.1345 23.924 91.1658 23.664 92.2925 23.664C93.7485 23.664 94.9531 24.0887 95.9065 24.938C96.8771 25.7873 97.5271 26.9747 97.8565 28.5L88.9905 31.568L88.3665 30.008L95.4645 27.46L94.9185 27.798C94.7105 27.2607 94.3811 26.7927 93.9305 26.394C93.4798 25.978 92.8645 25.77 92.0845 25.77C91.4605 25.77 90.8971 25.926 90.3945 26.238C89.9091 26.5327 89.5191 26.9487 89.2245 27.486C88.9471 28.006 88.8085 28.6213 88.8085 29.332C88.8085 30.06 88.9558 30.7013 89.2505 31.256C89.5625 31.7933 89.9785 32.218 90.4985 32.53C91.0358 32.842 91.6338 32.998 92.2925 32.998C92.7605 32.998 93.2025 32.9113 93.6185 32.738C94.0518 32.5647 94.4591 32.348 94.8405 32.088L96.0625 34.064C95.4905 34.428 94.8665 34.7227 94.1905 34.948C93.5318 35.156 92.8818 35.26 92.2405 35.26Z" fill="#F8F5EC"/>
</svg>
