<svg width="100" height="57" viewBox="0 0 100 57" fill="none" xmlns="http://www.w3.org/2000/svg">
<path d="M95.243 26.5319C102.41 40.9218 87.1981 55.5131 64.6885 56.3544C42.1788 57.1958 14.5044 46.8668 13.0517 29.6041C11.7211 13.7919 27.2452 1.55906 41.282 1.03438C63.7916 0.193002 86.2713 8.51758 95.243 26.5319Z" fill="#262E34" fill-opacity="0.12"/>
<path d="M12.1538 16.124C13.5578 16.124 14.7538 16.3667 15.7418 16.852C16.7471 17.32 17.5098 17.996 18.0298 18.88C18.5671 19.764 18.8358 20.8387 18.8358 22.104C18.8358 22.8493 18.7231 23.586 18.4978 24.314C18.2724 25.042 17.9084 25.7093 17.4058 26.316C16.9204 26.9053 16.2704 27.382 15.4558 27.746C14.6411 28.0927 13.6531 28.266 12.4918 28.266H9.73576V35H6.95376V16.124H12.1538ZM12.4918 25.588C13.1851 25.588 13.7658 25.4753 14.2338 25.25C14.7018 25.0073 15.0658 24.704 15.3258 24.34C15.6031 23.976 15.7938 23.6033 15.8978 23.222C16.0191 22.8233 16.0798 22.468 16.0798 22.156C16.0798 21.8093 16.0191 21.4453 15.8978 21.064C15.7938 20.6653 15.6118 20.3013 15.3518 19.972C15.0918 19.6253 14.7364 19.348 14.2858 19.14C13.8351 18.9147 13.2718 18.802 12.5958 18.802H9.73576V25.588H12.4918ZM24.4138 24.106L24.6738 27.226L24.5438 26.81C24.8384 26.1513 25.2544 25.588 25.7918 25.12C26.3291 24.652 26.8838 24.2967 27.4558 24.054C28.0451 23.794 28.5391 23.664 28.9378 23.664L28.8078 26.316C27.9758 26.264 27.2478 26.42 26.6238 26.784C26.0171 27.148 25.5404 27.6333 25.1938 28.24C24.8471 28.8467 24.6738 29.4967 24.6738 30.19V35H22.0218V24.106H24.4138ZM30.5819 29.436C30.5819 28.344 30.8419 27.3647 31.3619 26.498C31.8819 25.614 32.6012 24.9207 33.5199 24.418C34.4385 23.9153 35.4872 23.664 36.6659 23.664C37.8619 23.664 38.9105 23.9153 39.8119 24.418C40.7132 24.9207 41.4065 25.614 41.8919 26.498C42.3945 27.3647 42.6459 28.344 42.6459 29.436C42.6459 30.528 42.3945 31.516 41.8919 32.4C41.4065 33.284 40.7132 33.986 39.8119 34.506C38.9105 35.0087 37.8532 35.26 36.6399 35.26C35.4785 35.26 34.4385 35.026 33.5199 34.558C32.6185 34.09 31.8992 33.4227 31.3619 32.556C30.8419 31.672 30.5819 30.632 30.5819 29.436ZM33.2859 29.462C33.2859 30.138 33.4332 30.7533 33.7279 31.308C34.0225 31.8453 34.4212 32.2787 34.9239 32.608C35.4265 32.92 35.9899 33.076 36.6139 33.076C37.2552 33.076 37.8272 32.92 38.3299 32.608C38.8325 32.2787 39.2225 31.8453 39.4999 31.308C39.7945 30.7533 39.9419 30.138 39.9419 29.462C39.9419 28.786 39.7945 28.1793 39.4999 27.642C39.2225 27.1047 38.8325 26.6713 38.3299 26.342C37.8272 26.0127 37.2552 25.848 36.6139 25.848C35.9725 25.848 35.4005 26.0127 34.8979 26.342C34.3952 26.6713 33.9965 27.1133 33.7019 27.668C33.4245 28.2053 33.2859 28.8033 33.2859 29.462ZM46.0728 40.252L44.5128 38.588C44.9981 38.172 45.3795 37.6607 45.6568 37.054C45.9341 36.4647 46.0728 35.7627 46.0728 34.948V24.106H48.7768V35.052C48.7768 36.3 48.5601 37.3487 48.1268 38.198C47.7108 39.0473 47.0261 39.732 46.0728 40.252ZM45.8908 20.206C45.8908 19.79 46.0555 19.4433 46.3848 19.166C46.7141 18.8887 47.0695 18.75 47.4508 18.75C47.8495 18.75 48.2048 18.8887 48.5168 19.166C48.8288 19.4433 48.9848 19.79 48.9848 20.206C48.9848 20.622 48.8288 20.9687 48.5168 21.246C48.2048 21.506 47.8495 21.636 47.4508 21.636C47.0695 21.636 46.7141 21.506 46.3848 21.246C46.0555 20.9687 45.8908 20.622 45.8908 20.206ZM57.8664 35.26C56.6011 35.26 55.5178 35.0173 54.6164 34.532C53.7151 34.0293 53.0218 33.3447 52.5364 32.478C52.0511 31.594 51.8084 30.5887 51.8084 29.462C51.8084 28.3873 52.0771 27.4167 52.6144 26.55C53.1691 25.666 53.9058 24.964 54.8244 24.444C55.7604 23.924 56.7918 23.664 57.9184 23.664C59.3744 23.664 60.5791 24.0887 61.5324 24.938C62.5031 25.7873 63.1531 26.9747 63.4824 28.5L54.6164 31.568L53.9924 30.008L61.0904 27.46L60.5444 27.798C60.3364 27.2607 60.0071 26.7927 59.5564 26.394C59.1058 25.978 58.4904 25.77 57.7104 25.77C57.0864 25.77 56.5231 25.926 56.0204 26.238C55.5351 26.5327 55.1451 26.9487 54.8504 27.486C54.5731 28.006 54.4344 28.6213 54.4344 29.332C54.4344 30.06 54.5818 30.7013 54.8764 31.256C55.1884 31.7933 55.6044 32.218 56.1244 32.53C56.6618 32.842 57.2598 32.998 57.9184 32.998C58.3864 32.998 58.8284 32.9113 59.2444 32.738C59.6778 32.5647 60.0851 32.348 60.4664 32.088L61.6884 34.064C61.1164 34.428 60.4924 34.7227 59.8164 34.948C59.1578 35.156 58.5078 35.26 57.8664 35.26ZM75.3734 33.986C74.888 34.3847 74.2987 34.6967 73.6054 34.922C72.9294 35.1473 72.2447 35.26 71.5514 35.26C70.3554 35.26 69.298 35.026 68.3794 34.558C67.478 34.09 66.776 33.4313 66.2734 32.582C65.7707 31.7327 65.5194 30.7187 65.5194 29.54C65.5194 28.3787 65.788 27.3733 66.3254 26.524C66.8627 25.6573 67.5734 24.9987 68.4574 24.548C69.3414 24.08 70.2774 23.846 71.2654 23.846C72.1667 23.846 72.964 23.9673 73.6574 24.21C74.3507 24.4527 74.9487 24.7907 75.4514 25.224L74.1254 26.966C73.8307 26.7233 73.458 26.5067 73.0074 26.316C72.574 26.1253 72.0714 26.03 71.4994 26.03C70.8927 26.03 70.338 26.186 69.8354 26.498C69.3327 26.7927 68.934 27.2087 68.6394 27.746C68.3447 28.266 68.1974 28.864 68.1974 29.54C68.1974 30.1813 68.3447 30.7793 68.6394 31.334C68.9514 31.8713 69.376 32.296 69.9134 32.608C70.4507 32.92 71.066 33.076 71.7594 33.076C72.21 33.076 72.626 33.0153 73.0074 32.894C73.3887 32.7553 73.7267 32.5647 74.0214 32.322L75.3734 33.986ZM79.4797 19.322H82.1577V24.132H85.0697V26.238H82.1577V35H79.4797V26.238H77.5557V24.132H79.4797V19.322ZM91.1332 35.234C90.3359 35.234 89.5646 35.0953 88.8192 34.818C88.0739 34.5233 87.4586 34.0987 86.9732 33.544L88.1172 32.036C88.5852 32.4693 89.0532 32.7987 89.5212 33.024C90.0066 33.232 90.4659 33.336 90.8992 33.336C91.2459 33.336 91.5579 33.3013 91.8352 33.232C92.1126 33.1453 92.3379 33.0067 92.5112 32.816C92.6846 32.6253 92.7712 32.374 92.7712 32.062C92.7712 31.698 92.6499 31.412 92.4072 31.204C92.1646 30.996 91.8526 30.8227 91.4712 30.684C91.0899 30.5453 90.6826 30.4153 90.2492 30.294C89.3306 29.9993 88.6372 29.5833 88.1692 29.046C87.7012 28.4913 87.4672 27.8413 87.4672 27.096C87.4672 26.524 87.6059 25.9867 87.8832 25.484C88.1779 24.964 88.6199 24.5393 89.2092 24.21C89.7986 23.8807 90.5266 23.716 91.3932 23.716C92.1906 23.716 92.8926 23.8113 93.4992 24.002C94.1059 24.1753 94.6692 24.4787 95.1892 24.912L94.1492 26.524C93.8372 26.212 93.4646 25.978 93.0312 25.822C92.6152 25.6487 92.2339 25.5533 91.8872 25.536C91.5752 25.536 91.2892 25.588 91.0292 25.692C90.7692 25.7787 90.5612 25.9173 90.4052 26.108C90.2492 26.2813 90.1712 26.4893 90.1712 26.732C90.1539 27.0787 90.2666 27.3647 90.5092 27.59C90.7692 27.798 91.0986 27.9713 91.4972 28.11C91.8959 28.2313 92.2859 28.3613 92.6672 28.5C93.2046 28.656 93.6812 28.8727 94.0972 29.15C94.5132 29.41 94.8426 29.7307 95.0852 30.112C95.3279 30.4933 95.4492 30.9787 95.4492 31.568C95.4492 32.2093 95.2932 32.816 94.9812 33.388C94.6692 33.9427 94.1926 34.3933 93.5512 34.74C92.9099 35.0693 92.1039 35.234 91.1332 35.234Z" fill="#F8F5EC"/>
</svg>
