<svg width="100" height="57" viewBox="0 0 100 57" fill="none" xmlns="http://www.w3.org/2000/svg">
<path d="M95.243 26.5319C102.41 40.9218 87.1981 55.5131 64.6885 56.3544C42.1788 57.1958 14.5044 46.8668 13.0517 29.6041C11.7211 13.7919 27.2452 1.55906 41.282 1.03438C63.7916 0.193002 86.2713 8.51758 95.243 26.5319Z" fill="#262E34" fill-opacity="0.12"/>
<path d="M32.7857 19.738C32.127 19.3913 31.4163 19.0967 30.6537 18.854C29.891 18.6113 29.1543 18.49 28.4437 18.49C27.473 18.49 26.7017 18.7153 26.1297 19.166C25.5577 19.5993 25.2717 20.1973 25.2717 20.96C25.2717 21.4973 25.4623 21.9653 25.8437 22.364C26.225 22.7627 26.719 23.1093 27.3257 23.404C27.9323 23.6987 28.5737 23.976 29.2497 24.236C29.8217 24.444 30.385 24.6953 30.9397 24.99C31.5117 25.2673 32.023 25.614 32.4737 26.03C32.9417 26.446 33.3057 26.966 33.5657 27.59C33.843 28.1967 33.9817 28.942 33.9817 29.826C33.9817 30.8313 33.7303 31.7413 33.2277 32.556C32.7423 33.3707 32.0317 34.0207 31.0957 34.506C30.177 34.974 29.059 35.208 27.7417 35.208C26.9443 35.208 26.1643 35.1213 25.4017 34.948C24.6563 34.7573 23.9457 34.5147 23.2697 34.22C22.611 33.908 22.013 33.57 21.4757 33.206L22.7237 31.048C23.1397 31.3427 23.6163 31.6287 24.1537 31.906C24.691 32.166 25.2457 32.374 25.8177 32.53C26.407 32.686 26.9617 32.764 27.4817 32.764C28.0537 32.764 28.617 32.6687 29.1717 32.478C29.7263 32.27 30.1857 31.958 30.5497 31.542C30.9137 31.1087 31.0957 30.5453 31.0957 29.852C31.0957 29.2627 30.931 28.7687 30.6017 28.37C30.2897 27.954 29.865 27.5987 29.3277 27.304C28.8077 27.0093 28.2443 26.7493 27.6377 26.524C27.0483 26.2987 26.4503 26.0473 25.8437 25.77C25.237 25.4927 24.6737 25.1633 24.1537 24.782C23.6337 24.3833 23.209 23.898 22.8797 23.326C22.5677 22.7367 22.4117 22.0173 22.4117 21.168C22.4117 20.1627 22.6457 19.2873 23.1137 18.542C23.599 17.7793 24.2663 17.1813 25.1157 16.748C25.965 16.3147 26.9443 16.072 28.0537 16.02C29.319 16.02 30.4197 16.176 31.3557 16.488C32.2917 16.8 33.1237 17.1727 33.8517 17.606L32.7857 19.738ZM37.4925 35V14.798H40.1705V35H37.4925ZM42.8225 27.72L47.8145 35H44.6945L41.0545 29.254L42.8225 27.72ZM39.3385 31.646L39.0785 29.072L45.6825 23.872L47.3205 25.302L39.3385 31.646ZM50.6956 24.106H53.3736V35H50.6956V24.106ZM50.5396 20.206C50.5396 19.79 50.7043 19.4433 51.0336 19.166C51.3629 18.8887 51.7183 18.75 52.0996 18.75C52.4983 18.75 52.8536 18.8887 53.1656 19.166C53.4776 19.4433 53.6336 19.79 53.6336 20.206C53.6336 20.622 53.4776 20.9687 53.1656 21.246C52.8536 21.506 52.4983 21.636 52.0996 21.636C51.7183 21.636 51.3629 21.506 51.0336 21.246C50.7043 20.9687 50.5396 20.622 50.5396 20.206ZM57.4495 14.798H60.1275V35H57.4495V14.798ZM64.2034 14.798H66.8814V35H64.2034V14.798ZM74.1293 35.234C73.332 35.234 72.5607 35.0953 71.8153 34.818C71.07 34.5233 70.4547 34.0987 69.9693 33.544L71.1133 32.036C71.5813 32.4693 72.0493 32.7987 72.5173 33.024C73.0027 33.232 73.462 33.336 73.8953 33.336C74.242 33.336 74.554 33.3013 74.8313 33.232C75.1087 33.1453 75.334 33.0067 75.5073 32.816C75.6807 32.6253 75.7673 32.374 75.7673 32.062C75.7673 31.698 75.646 31.412 75.4033 31.204C75.1607 30.996 74.8487 30.8227 74.4673 30.684C74.086 30.5453 73.6787 30.4153 73.2453 30.294C72.3267 29.9993 71.6333 29.5833 71.1653 29.046C70.6973 28.4913 70.4633 27.8413 70.4633 27.096C70.4633 26.524 70.602 25.9867 70.8793 25.484C71.174 24.964 71.616 24.5393 72.2053 24.21C72.7947 23.8807 73.5227 23.716 74.3893 23.716C75.1867 23.716 75.8887 23.8113 76.4953 24.002C77.102 24.1753 77.6653 24.4787 78.1853 24.912L77.1453 26.524C76.8333 26.212 76.4607 25.978 76.0273 25.822C75.6113 25.6487 75.23 25.5533 74.8833 25.536C74.5713 25.536 74.2853 25.588 74.0253 25.692C73.7653 25.7787 73.5573 25.9173 73.4013 26.108C73.2453 26.2813 73.1673 26.4893 73.1673 26.732C73.15 27.0787 73.2627 27.3647 73.5053 27.59C73.7653 27.798 74.0947 27.9713 74.4933 28.11C74.892 28.2313 75.282 28.3613 75.6633 28.5C76.2007 28.656 76.6773 28.8727 77.0933 29.15C77.5093 29.41 77.8387 29.7307 78.0813 30.112C78.324 30.4933 78.4453 30.9787 78.4453 31.568C78.4453 32.2093 78.2893 32.816 77.9773 33.388C77.6653 33.9427 77.1887 34.3933 76.5473 34.74C75.906 35.0693 75.1 35.234 74.1293 35.234Z" fill="#F8F5EC"/>
</svg>
