<svg width="100" height="57" viewBox="0 0 100 57" fill="none" xmlns="http://www.w3.org/2000/svg">
<path d="M95.243 26.5319C102.41 40.9218 87.1981 55.5131 64.6885 56.3544C42.1788 57.1958 14.5044 46.8668 13.0517 29.6041C11.7211 13.7919 27.2452 1.55906 41.282 1.03438C63.7916 0.193002 86.2713 8.51758 95.243 26.5319Z" fill="#262E34" fill-opacity="0.12"/>
<path d="M19.8813 33.57C19.604 33.7607 19.188 33.9947 18.6333 34.272C18.096 34.532 17.4547 34.7573 16.7093 34.948C15.9813 35.1387 15.1753 35.2253 14.2913 35.208C12.818 35.1907 11.492 34.9307 10.3133 34.428C9.152 33.9253 8.164 33.2407 7.34934 32.374C6.53467 31.49 5.902 30.4847 5.45134 29.358C5.018 28.214 4.80134 27.0007 4.80134 25.718C4.80134 24.2967 5.02667 22.9967 5.47734 21.818C5.928 20.622 6.56934 19.582 7.40134 18.698C8.25067 17.814 9.23867 17.1293 10.3653 16.644C11.5093 16.1587 12.7573 15.916 14.1093 15.916C15.2707 15.916 16.3193 16.072 17.2553 16.384C18.1913 16.696 18.98 17.06 19.6213 17.476L18.5293 20.076C18.0267 19.7293 17.4027 19.4 16.6573 19.088C15.9293 18.7587 15.1147 18.594 14.2133 18.594C13.3293 18.594 12.4887 18.776 11.6913 19.14C10.9113 19.4867 10.218 19.9807 9.61134 20.622C9.022 21.246 8.554 21.9827 8.20734 22.832C7.86067 23.664 7.68734 24.574 7.68734 25.562C7.68734 26.5673 7.84334 27.4947 8.15534 28.344C8.46734 29.1933 8.90934 29.93 9.48134 30.554C10.0707 31.178 10.7727 31.6633 11.5873 32.01C12.402 32.3567 13.3207 32.53 14.3433 32.53C15.314 32.53 16.1633 32.3827 16.8913 32.088C17.6367 31.7933 18.2433 31.4553 18.7113 31.074L19.8813 33.57ZM22.5155 29.436C22.5155 28.344 22.7755 27.3647 23.2955 26.498C23.8155 25.614 24.5348 24.9207 25.4535 24.418C26.3721 23.9153 27.4208 23.664 28.5995 23.664C29.7955 23.664 30.8441 23.9153 31.7455 24.418C32.6468 24.9207 33.3401 25.614 33.8255 26.498C34.3281 27.3647 34.5795 28.344 34.5795 29.436C34.5795 30.528 34.3281 31.516 33.8255 32.4C33.3401 33.284 32.6468 33.986 31.7455 34.506C30.8441 35.0087 29.7868 35.26 28.5735 35.26C27.4121 35.26 26.3721 35.026 25.4535 34.558C24.5521 34.09 23.8328 33.4227 23.2955 32.556C22.7755 31.672 22.5155 30.632 22.5155 29.436ZM25.2195 29.462C25.2195 30.138 25.3668 30.7533 25.6615 31.308C25.9561 31.8453 26.3548 32.2787 26.8575 32.608C27.3601 32.92 27.9235 33.076 28.5475 33.076C29.1888 33.076 29.7608 32.92 30.2635 32.608C30.7661 32.2787 31.1561 31.8453 31.4335 31.308C31.7281 30.7533 31.8755 30.138 31.8755 29.462C31.8755 28.786 31.7281 28.1793 31.4335 27.642C31.1561 27.1047 30.7661 26.6713 30.2635 26.342C29.7608 26.0127 29.1888 25.848 28.5475 25.848C27.9061 25.848 27.3341 26.0127 26.8315 26.342C26.3288 26.6713 25.9301 27.1133 25.6355 27.668C25.3581 28.2053 25.2195 28.8033 25.2195 29.462ZM40.1384 24.106L40.3724 26.602L40.2684 26.264C40.6324 25.484 41.1957 24.86 41.9584 24.392C42.7211 23.9067 43.6224 23.664 44.6624 23.664C45.685 23.664 46.5257 23.9673 47.1844 24.574C47.8604 25.1807 48.2071 25.9693 48.2244 26.94V35H45.5464V27.876C45.529 27.3213 45.3644 26.8707 45.0524 26.524C44.7404 26.16 44.255 25.9693 43.5964 25.952C43.007 25.952 42.4697 26.134 41.9844 26.498C41.499 26.8447 41.1177 27.3213 40.8404 27.928C40.563 28.5347 40.4244 29.2367 40.4244 30.034V35H37.7464V24.106H40.1384ZM53.3606 19.322H56.0386V24.132H58.9506V26.238H56.0386V35H53.3606V26.238H51.4366V24.132H53.3606V19.322ZM66.3921 35.26C65.3694 35.26 64.4421 35.052 63.6101 34.636C62.7781 34.2027 62.1194 33.5613 61.6341 32.712C61.1488 31.8627 60.9061 30.814 60.9061 29.566C60.9061 28.3353 61.1574 27.278 61.6601 26.394C62.1801 25.51 62.8561 24.834 63.6881 24.366C64.5374 23.8807 65.4561 23.638 66.4441 23.638C67.4841 23.638 68.3334 23.8633 68.9921 24.314C69.6681 24.7473 70.1968 25.2587 70.5781 25.848L70.3961 26.264L70.6561 24.106H73.1261V35H70.4481V32.27L70.7341 32.92C70.6648 33.0587 70.5174 33.258 70.2921 33.518C70.0668 33.7607 69.7634 34.0207 69.3821 34.298C69.0181 34.5753 68.5848 34.8093 68.0821 35C67.5968 35.1733 67.0334 35.26 66.3921 35.26ZM67.1201 33.076C67.6921 33.076 68.2034 32.972 68.6541 32.764C69.1048 32.556 69.4861 32.2613 69.7981 31.88C70.1101 31.4987 70.3268 31.048 70.4481 30.528V28.266C70.3094 27.7807 70.0754 27.3647 69.7461 27.018C69.4168 26.654 69.0181 26.368 68.5501 26.16C68.0994 25.952 67.5968 25.848 67.0421 25.848C66.4181 25.848 65.8461 26.004 65.3261 26.316C64.8061 26.6107 64.3901 27.0267 64.0781 27.564C63.7661 28.1013 63.6101 28.7253 63.6101 29.436C63.6101 30.112 63.7661 30.7273 64.0781 31.282C64.4074 31.8367 64.8408 32.2787 65.3781 32.608C65.9154 32.92 66.4961 33.076 67.1201 33.076ZM86.1468 33.986C85.6615 34.3847 85.0721 34.6967 84.3788 34.922C83.7028 35.1473 83.0181 35.26 82.3248 35.26C81.1288 35.26 80.0715 35.026 79.1528 34.558C78.2515 34.09 77.5495 33.4313 77.0468 32.582C76.5441 31.7327 76.2928 30.7187 76.2928 29.54C76.2928 28.3787 76.5615 27.3733 77.0988 26.524C77.6361 25.6573 78.3468 24.9987 79.2308 24.548C80.1148 24.08 81.0508 23.846 82.0388 23.846C82.9401 23.846 83.7375 23.9673 84.4308 24.21C85.1241 24.4527 85.7221 24.7907 86.2248 25.224L84.8988 26.966C84.6041 26.7233 84.2315 26.5067 83.7808 26.316C83.3475 26.1253 82.8448 26.03 82.2728 26.03C81.6661 26.03 81.1115 26.186 80.6088 26.498C80.1061 26.7927 79.7075 27.2087 79.4128 27.746C79.1181 28.266 78.9708 28.864 78.9708 29.54C78.9708 30.1813 79.1181 30.7793 79.4128 31.334C79.7248 31.8713 80.1495 32.296 80.6868 32.608C81.2241 32.92 81.8395 33.076 82.5328 33.076C82.9835 33.076 83.3995 33.0153 83.7808 32.894C84.1621 32.7553 84.5001 32.5647 84.7948 32.322L86.1468 33.986ZM90.2532 19.322H92.9312V24.132H95.8432V26.238H92.9312V35H90.2532V26.238H88.3292V24.132H90.2532V19.322Z" fill="#F8F5EC"/>
</svg>
